<?xml version="1.0" encoding="utf-8"?>
<!-- Generator: Adobe Illustrator 15.0.0, SVG Export Plug-In . SVG Version: 6.00 Build 0)  -->
<!DOCTYPE svg PUBLIC "-//W3C//DTD SVG 1.1//EN" "http://www.w3.org/Graphics/SVG/1.1/DTD/svg11.dtd">
<svg version="1.1" id="Layer_1" xmlns="http://www.w3.org/2000/svg" xmlns:xlink="http://www.w3.org/1999/xlink" x="0px" y="0px"
	 width="184px" height="177px" viewBox="0 0 184 177" enable-background="new 0 0 184 177" xml:space="preserve">
<g id="Layer_2">
</g>
<g id="Layer_4">
</g>
<g id="Layer_3">
</g>
<g id="Layer_3_copy">
</g>
<g id="text">
</g>
<g id="Image">
	<g>
		<path fill="#97131F" d="M182,161.139c0,0-29.725,14.861-89.175,14.861c-59.446,0-89.173-14.861-89.173-14.861V19.185
			c0,0,29.727-14.862,89.173-14.862c59.45,0,89.175,14.862,89.175,14.862V161.139z"/>
		<g>
			<g>
				<path fill="#97131F" d="M91.999,10.104c29.825,0,51.754,3.862,64.933,7.131c8.291,2.048,14.235,4.129,17.637,5.484V155.95
					c-9.346,3.667-36.99,12.618-82.569,12.618c-29.855,0-51.785-3.865-64.931-7.133c-8.323-2.049-14.234-4.131-17.637-5.484V22.72
					C18.745,19.085,46.422,10.104,91.999,10.104 M91.999,7.626c-48.714,0-77.149,10.137-85.045,13.408v136.602
					c3.171,1.321,9.746,3.767,19.52,6.208c13.279,3.305,35.439,7.199,65.526,7.199c48.717,0,77.154-10.137,85.045-13.408v-136.6
					c-3.201-1.321-9.74-3.767-19.518-6.208C144.216,11.555,122.088,7.626,91.999,7.626L91.999,7.626z"/>
			</g>
		</g>
		<path fill="#BE1E2D" d="M180.348,159.486c0,0-29.723,14.861-89.172,14.861C31.726,174.348,2,159.486,2,159.486V17.533
			c0,0,29.726-14.862,89.175-14.862c59.45,0,89.173,14.862,89.173,14.862V159.486L180.348,159.486z"/>
		<g>
			<g>
				<path fill="#DED3B5" d="M91.175,9.278c29.822,0,51.752,3.863,64.931,7.133c8.291,2.046,14.234,4.127,17.638,5.482v133.232
					c-9.347,3.667-36.992,12.617-82.568,12.617c-29.858,0-51.787-3.865-64.934-7.133c-8.323-2.049-14.234-4.129-17.637-5.483V21.894
					C17.919,18.227,45.597,9.278,91.175,9.278 M91.175,6.801c-48.717,0-77.152,10.137-85.045,13.408v136.602
					c3.169,1.321,9.743,3.767,19.517,6.207c13.278,3.305,35.439,7.2,65.528,7.2c48.716,0,77.152-10.138,85.043-13.409V20.208
					c-3.202-1.321-9.741-3.763-19.518-6.208C143.391,10.729,121.262,6.801,91.175,6.801L91.175,6.801z"/>
			</g>
		</g>
		<g>
			<path fill="#9B8579" d="M91.668,7.692c30.09,0,52.25,3.929,65.529,7.232c9.312,2.277,15.652,4.623,19.021,5.978v-0.694
				c-3.202-1.321-9.741-3.763-19.518-6.208c-13.312-3.271-35.438-7.199-65.525-7.199c-48.717,0-77.152,10.137-85.045,13.408v136.602
				c0.165,0.065,0.33,0.133,0.495,0.198V21.101C14.552,17.83,42.954,7.692,91.668,7.692z"/>
			<path fill="#9B8579" d="M26.77,161.501c13.147,3.269,35.076,7.167,64.898,7.167c45.579,0,73.257-8.982,82.604-12.617V22.786
				c-0.166-0.066-0.362-0.132-0.527-0.198v132.539c-9.348,3.667-36.992,12.617-82.568,12.617c-29.858,0-51.787-3.865-64.934-7.133
				c-7.927-1.948-13.672-3.932-17.142-5.286v0.727C12.503,157.372,18.447,159.454,26.77,161.501z"/>
		</g>
		<g>
			<path fill="#DED3B5" d="M169.188,63.441H13.131V25.33c0,0,33.457-11.131,78.044-11.131c44.585,0,78.013,11.131,78.013,11.131
				V63.441L169.188,63.441z"/>
			<g>
				<path fill="#9B8579" d="M91.999,15.024c40.495,0,71.803,9.182,77.188,10.867V25.33c0,0-33.426-11.131-78.012-11.131
					c-44.587,0-78.044,11.131-78.044,11.131v38.112h0.826V26.155C13.957,26.155,47.414,15.024,91.999,15.024z"/>
			</g>
		</g>
		<g>
			<g>
				<polygon fill="#C4BCA2" points="16.189,29.787 15.939,63.441 15.689,29.787 				"/>
			</g>
			<g>
				<polygon fill="#C4BCA2" points="18.896,28.961 18.646,63.441 18.396,28.961 				"/>
			</g>
			<g>
				<polygon fill="#C4BCA2" points="21.605,28.201 21.355,63.441 21.105,28.201 				"/>
			</g>
			<g>
				<polygon fill="#C4BCA2" points="24.344,27.474 24.094,63.441 23.844,27.474 				"/>
			</g>
			<g>
				<polygon fill="#C4BCA2" points="27.053,26.816 26.803,63.441 26.553,26.816 				"/>
			</g>
			<g>
				<polygon fill="#C4BCA2" points="29.762,26.188 29.512,63.441 29.262,26.188 				"/>
			</g>
			<g>
				<polygon fill="#C4BCA2" points="32.504,25.594 32.254,63.441 32.004,25.594 				"/>
			</g>
			<g>
				<polygon fill="#C4BCA2" points="35.211,25.032 34.961,63.441 34.711,25.032 				"/>
			</g>
			<g>
				<polygon fill="#C4BCA2" points="37.953,24.471 37.703,63.441 37.453,24.471 				"/>
			</g>
			<g>
				<polygon fill="#C4BCA2" points="40.662,24.008 40.412,63.441 40.162,24.008 				"/>
			</g>
			<g>
				<polygon fill="#C4BCA2" points="43.369,23.545 43.119,63.441 42.869,23.545 				"/>
			</g>
			<g>
				<polygon fill="#C4BCA2" points="46.111,23.116 45.861,63.441 45.611,23.116 				"/>
			</g>
			<g>
				<polygon fill="#C4BCA2" points="48.82,22.687 48.57,63.441 48.32,22.687 				"/>
			</g>
			<g>
				<polygon fill="#C4BCA2" points="51.526,22.323 51.276,63.441 51.026,22.323 				"/>
			</g>
			<g>
				<polygon fill="#C4BCA2" points="54.269,21.993 54.019,63.441 53.769,21.993 				"/>
			</g>
			<g>
				<polygon fill="#C4BCA2" points="56.978,21.662 56.728,63.441 56.478,21.662 				"/>
			</g>
			<g>
				<polygon fill="#C4BCA2" points="59.684,21.365 59.434,63.441 59.184,21.365 				"/>
			</g>
			<g>
				<polygon fill="#C4BCA2" points="62.426,21.101 62.176,63.441 61.926,21.101 				"/>
			</g>
			<g>
				<polygon fill="#C4BCA2" points="65.135,20.87 64.885,63.441 64.635,20.87 				"/>
			</g>
			<g>
				<polygon fill="#C4BCA2" points="67.877,20.671 67.627,63.441 67.377,20.671 				"/>
			</g>
			<g>
				<polygon fill="#C4BCA2" points="70.584,20.473 70.334,63.441 70.084,20.473 				"/>
			</g>
			<g>
				<polygon fill="#C4BCA2" points="73.293,20.308 73.043,63.441 72.793,20.308 				"/>
			</g>
			<g>
				<polygon fill="#C4BCA2" points="76.032,20.143 75.782,63.441 75.532,20.143 				"/>
			</g>
			<g>
				<polygon fill="#C4BCA2" points="78.742,20.043 78.492,63.441 78.242,20.043 				"/>
			</g>
			<g>
				<polygon fill="#C4BCA2" points="81.451,19.944 81.201,63.441 80.951,19.944 				"/>
			</g>
			<g>
				<polygon fill="#C4BCA2" points="84.193,19.878 83.943,63.441 83.693,19.878 				"/>
			</g>
			<g>
				<polygon fill="#C4BCA2" points="86.899,19.812 86.649,63.441 86.399,19.812 				"/>
			</g>
			<g>
				<polygon fill="#C4BCA2" points="89.642,19.779 89.392,63.441 89.142,19.779 				"/>
			</g>
			<g>
				<polygon fill="#C4BCA2" points="92.348,19.779 92.098,63.441 91.848,19.779 				"/>
			</g>
			<g>
				<polygon fill="#C4BCA2" points="95.057,19.779 94.807,63.441 94.557,19.779 				"/>
			</g>
			<g>
				<polygon fill="#C4BCA2" points="97.799,19.812 97.549,63.441 97.299,19.812 				"/>
			</g>
			<g>
				<polygon fill="#C4BCA2" points="100.508,19.878 100.258,63.441 100.008,19.878 				"/>
			</g>
			<g>
				<polygon fill="#C4BCA2" points="103.215,19.944 102.965,63.441 102.715,19.944 				"/>
			</g>
			<g>
				<polygon fill="#C4BCA2" points="105.957,20.043 105.707,63.441 105.457,20.043 				"/>
			</g>
			<g>
				<polygon fill="#C4BCA2" points="108.663,20.143 108.413,63.441 108.163,20.143 				"/>
			</g>
			<g>
				<polygon fill="#C4BCA2" points="111.404,20.308 111.154,63.441 110.904,20.308 				"/>
			</g>
			<g>
				<polygon fill="#C4BCA2" points="114.115,20.473 113.865,63.441 113.615,20.473 				"/>
			</g>
			<g>
				<polygon fill="#C4BCA2" points="116.823,20.671 116.573,63.441 116.323,20.671 				"/>
			</g>
			<g>
				<polygon fill="#C4BCA2" points="119.562,20.87 119.312,63.441 119.062,20.87 				"/>
			</g>
			<g>
				<polygon fill="#C4BCA2" points="122.271,21.101 122.021,63.441 121.771,21.101 				"/>
			</g>
			<g>
				<polygon fill="#C4BCA2" points="124.98,21.365 124.73,63.441 124.48,21.365 				"/>
			</g>
			<g>
				<polygon fill="#C4BCA2" points="127.721,21.662 127.471,63.441 127.221,21.662 				"/>
			</g>
			<g>
				<polygon fill="#C4BCA2" points="130.43,21.993 130.18,63.441 129.93,21.993 				"/>
			</g>
			<g>
				<polygon fill="#C4BCA2" points="133.139,22.323 132.889,63.441 132.639,22.323 				"/>
			</g>
			<g>
				<polygon fill="#C4BCA2" points="135.878,22.687 135.628,63.441 135.378,22.687 				"/>
			</g>
			<g>
				<polygon fill="#C4BCA2" points="138.587,23.116 138.337,63.441 138.087,23.116 				"/>
			</g>
			<g>
				<polygon fill="#C4BCA2" points="141.329,23.545 141.079,63.441 140.829,23.545 				"/>
			</g>
			<g>
				<polygon fill="#C4BCA2" points="144.036,24.008 143.786,63.441 143.536,24.008 				"/>
			</g>
			<g>
				<polygon fill="#C4BCA2" points="146.745,24.471 146.495,63.441 146.245,24.471 				"/>
			</g>
			<g>
				<polygon fill="#C4BCA2" points="149.486,25.032 149.236,63.441 148.986,25.032 				"/>
			</g>
			<g>
				<polygon fill="#C4BCA2" points="152.197,25.594 151.947,63.441 151.697,25.594 				"/>
			</g>
			<g>
				<polygon fill="#C4BCA2" points="154.902,26.188 154.652,63.441 154.402,26.188 				"/>
			</g>
			<g>
				<polygon fill="#C4BCA2" points="157.645,26.816 157.395,63.441 157.145,26.816 				"/>
			</g>
			<g>
				<polygon fill="#C4BCA2" points="160.352,27.474 160.102,63.441 159.852,27.474 				"/>
			</g>
			<g>
				<polygon fill="#C4BCA2" points="163.093,28.201 162.843,63.441 162.593,28.201 				"/>
			</g>
			<g>
				<polygon fill="#C4BCA2" points="165.802,28.961 165.552,63.441 165.302,28.961 				"/>
			</g>
			<g>
				<polygon fill="#C4BCA2" points="168.512,29.787 168.262,63.441 168.012,29.787 				"/>
			</g>
			<g>
				<path fill="none" d="M130.18,21.993"/>
			</g>
			<g>
				<path fill="none" d="M132.889,22.323"/>
			</g>
			<g>
				<path fill="none" d="M132.889,22.323"/>
			</g>
			<g>
				<path fill="none" d="M135.628,22.687"/>
			</g>
			<g>
				<path fill="none" d="M162.843,28.201"/>
			</g>
			<g>
				<path fill="none" d="M165.552,28.961"/>
			</g>
			<g>
				<path fill="none" d="M154.652,26.188"/>
			</g>
			<g>
				<path fill="none" d="M157.395,26.816"/>
			</g>
			<g>
				<path fill="none" d="M151.947,25.594"/>
			</g>
			<g>
				<path fill="none" d="M154.652,26.188"/>
			</g>
			<g>
				<path fill="none" d="M146.495,24.471"/>
			</g>
			<g>
				<path fill="none" d="M149.236,25.032"/>
			</g>
			<g>
				<path fill="none" d="M157.395,26.816"/>
			</g>
			<g>
				<path fill="none" d="M160.102,27.474"/>
			</g>
			<g>
				<path fill="none" d="M143.786,24.008"/>
			</g>
			<g>
				<path fill="none" d="M146.495,24.471"/>
			</g>
			<g>
				<path fill="none" d="M135.628,22.687"/>
			</g>
			<g>
				<path fill="none" d="M138.337,23.116"/>
			</g>
			<g>
				<path fill="none" d="M138.337,23.116"/>
			</g>
			<g>
				<path fill="none" d="M141.079,23.545"/>
			</g>
			<g>
				<path fill="none" d="M149.236,25.032"/>
			</g>
			<g>
				<path fill="none" d="M151.947,25.594"/>
			</g>
			<g>
				<path fill="none" d="M160.102,27.474"/>
			</g>
			<g>
				<path fill="none" d="M162.843,28.201"/>
			</g>
			<g>
				<path fill="none" d="M141.079,23.545"/>
			</g>
			<g>
				<path fill="none" d="M143.786,24.008"/>
			</g>
			<g>
				<path fill="none" d="M165.552,28.961"/>
			</g>
			<g>
				<path fill="none" d="M168.262,29.787"/>
			</g>
			<g>
				<path fill="none" d="M62.176,21.101"/>
			</g>
			<g>
				<path fill="none" d="M64.885,20.87"/>
			</g>
			<g>
				<path fill="none" d="M54.019,21.993"/>
			</g>
			<g>
				<path fill="none" d="M56.728,21.662"/>
			</g>
			<g>
				<path fill="none" d="M51.276,22.323"/>
			</g>
			<g>
				<path fill="none" d="M54.019,21.993"/>
			</g>
			<g>
				<path fill="none" d="M48.57,22.687"/>
			</g>
			<g>
				<path fill="none" d="M51.276,22.323"/>
			</g>
			<g>
				<path fill="none" d="M43.119,23.545"/>
			</g>
			<g>
				<path fill="none" d="M45.861,23.116"/>
			</g>
			<g>
				<path fill="none" d="M45.861,23.116"/>
			</g>
			<g>
				<path fill="none" d="M48.57,22.687"/>
			</g>
			<g>
				<path fill="none" d="M56.728,21.662"/>
			</g>
			<g>
				<path fill="none" d="M59.434,21.365"/>
			</g>
			<g>
				<path fill="none" d="M40.412,24.008"/>
			</g>
			<g>
				<path fill="none" d="M43.119,23.545"/>
			</g>
			<g>
				<path fill="none" d="M64.885,20.87"/>
			</g>
			<g>
				<path fill="none" d="M67.627,20.671"/>
			</g>
			<g>
				<path fill="none" d="M67.627,20.671"/>
			</g>
			<g>
				<path fill="none" d="M70.334,20.473"/>
			</g>
			<g>
				<path fill="none" d="M59.434,21.365"/>
			</g>
			<g>
				<path fill="none" d="M62.176,21.101"/>
			</g>
			<g>
				<path fill="none" d="M24.094,27.474"/>
			</g>
			<g>
				<path fill="none" d="M26.803,26.816"/>
			</g>
			<g>
				<path fill="none" d="M18.646,28.961"/>
			</g>
			<g>
				<path fill="none" d="M21.355,28.201"/>
			</g>
			<g>
				<path fill="none" d="M21.355,28.201"/>
			</g>
			<g>
				<path fill="none" d="M24.094,27.474"/>
			</g>
			<g>
				<path fill="none" d="M70.334,20.473"/>
			</g>
			<g>
				<path fill="none" d="M73.043,20.308"/>
			</g>
			<g>
				<path fill="none" d="M15.939,29.787"/>
			</g>
			<g>
				<path fill="none" d="M18.646,28.961"/>
			</g>
			<g>
				<path fill="none" d="M26.803,26.816"/>
			</g>
			<g>
				<path fill="none" d="M29.512,26.188"/>
			</g>
			<g>
				<path fill="none" d="M32.254,25.594"/>
			</g>
			<g>
				<path fill="none" d="M34.961,25.032"/>
			</g>
			<g>
				<path fill="none" d="M34.961,25.032"/>
			</g>
			<g>
				<path fill="none" d="M37.703,24.471"/>
			</g>
			<g>
				<path fill="none" d="M127.471,21.662"/>
			</g>
			<g>
				<path fill="none" d="M130.18,21.993"/>
			</g>
			<g>
				<path fill="none" d="M29.512,26.188"/>
			</g>
			<g>
				<path fill="none" d="M32.254,25.594"/>
			</g>
			<g>
				<path fill="none" d="M37.703,24.471"/>
			</g>
			<g>
				<path fill="none" d="M40.412,24.008"/>
			</g>
			<g>
				<path fill="none" d="M111.154,20.308"/>
			</g>
			<g>
				<path fill="none" d="M113.865,20.473"/>
			</g>
			<g>
				<path fill="none" d="M113.865,20.473"/>
			</g>
			<g>
				<path fill="none" d="M116.573,20.671"/>
			</g>
			<g>
				<path fill="none" d="M108.413,20.143"/>
			</g>
			<g>
				<path fill="none" d="M111.154,20.308"/>
			</g>
			<g>
				<path fill="none" d="M105.707,20.043"/>
			</g>
			<g>
				<path fill="none" d="M108.413,20.143"/>
			</g>
			<g>
				<path fill="none" d="M102.965,19.944"/>
			</g>
			<g>
				<path fill="none" d="M105.707,20.043"/>
			</g>
			<g>
				<path fill="none" d="M119.312,20.87"/>
			</g>
			<g>
				<path fill="none" d="M122.021,21.101"/>
			</g>
			<g>
				<path fill="none" d="M124.73,21.365"/>
			</g>
			<g>
				<path fill="none" d="M127.471,21.662"/>
			</g>
			<g>
				<path fill="none" d="M116.573,20.671"/>
			</g>
			<g>
				<path fill="none" d="M119.312,20.87"/>
			</g>
			<g>
				<path fill="none" d="M122.021,21.101"/>
			</g>
			<g>
				<path fill="none" d="M124.73,21.365"/>
			</g>
			<g>
				<path fill="none" d="M100.258,19.878"/>
			</g>
			<g>
				<path fill="none" d="M102.965,19.944"/>
			</g>
			<g>
				<path fill="none" d="M75.782,20.143"/>
			</g>
			<g>
				<path fill="none" d="M78.492,20.043"/>
			</g>
			<g>
				<path fill="none" d="M81.201,19.944"/>
			</g>
			<g>
				<path fill="none" d="M83.943,19.878"/>
			</g>
			<g>
				<path fill="none" d="M97.549,19.812"/>
			</g>
			<g>
				<path fill="none" d="M100.258,19.878"/>
			</g>
			<g>
				<path fill="none" d="M73.043,20.308"/>
			</g>
			<g>
				<path fill="none" d="M75.782,20.143"/>
			</g>
			<g>
				<path fill="none" d="M83.943,19.878"/>
			</g>
			<g>
				<path fill="none" d="M86.649,19.812"/>
			</g>
			<g>
				<path fill="none" d="M78.492,20.043"/>
			</g>
			<g>
				<path fill="none" d="M81.201,19.944"/>
			</g>
			<g>
				<path fill="none" d="M92.098,19.779"/>
			</g>
			<g>
				<path fill="none" d="M94.807,19.779"/>
			</g>
			<g>
				<path fill="none" d="M86.649,19.812"/>
			</g>
			<g>
				<path fill="none" d="M89.392,19.779"/>
			</g>
			<g>
				<path fill="none" d="M94.807,19.779"/>
			</g>
			<g>
				<path fill="none" d="M97.549,19.812"/>
			</g>
			<g>
				<path fill="none" d="M89.392,19.779"/>
			</g>
			<g>
				<path fill="none" d="M92.098,19.779"/>
			</g>
		</g>
		<g>
			<path fill="#DED3B5" d="M13.131,138.678h156.057v13.014c0,0-33.428,11.129-78.013,11.129c-44.587,0-78.044-11.129-78.044-11.129
				V138.678z"/>
		</g>
		<g>
			<g>
				<polygon fill="#C4BCA2" points="168.262,150.007 168.012,141.453 168.512,141.453 				"/>
			</g>
			<g>
				<polygon fill="#C4BCA2" points="165.552,150.833 165.302,141.453 165.802,141.453 				"/>
			</g>
			<g>
				<polygon fill="#C4BCA2" points="162.843,151.593 162.593,141.453 163.093,141.453 				"/>
			</g>
			<g>
				<polygon fill="#C4BCA2" points="160.102,152.316 159.852,141.453 160.352,141.453 				"/>
			</g>
			<g>
				<polygon fill="#C4BCA2" points="157.395,152.979 157.145,141.453 157.645,141.453 				"/>
			</g>
			<g>
				<polygon fill="#C4BCA2" points="154.652,153.639 154.402,141.453 154.902,141.453 				"/>
			</g>
			<g>
				<polygon fill="#C4BCA2" points="151.947,154.232 151.697,141.453 152.197,141.453 				"/>
			</g>
			<g>
				<polygon fill="#C4BCA2" points="149.236,154.794 148.986,141.453 149.486,141.453 				"/>
			</g>
			<g>
				<polygon fill="#C4BCA2" points="146.495,155.324 146.245,141.453 146.745,141.453 				"/>
			</g>
			<g>
				<polygon fill="#C4BCA2" points="143.786,155.818 143.536,141.453 144.036,141.453 				"/>
			</g>
			<g>
				<polygon fill="#C4BCA2" points="141.079,156.282 140.829,141.453 141.329,141.453 				"/>
			</g>
			<g>
				<polygon fill="#C4BCA2" points="138.337,156.711 138.087,141.453 138.587,141.453 				"/>
			</g>
			<g>
				<polygon fill="#C4BCA2" points="135.628,157.107 135.378,141.453 135.878,141.453 				"/>
			</g>
			<g>
				<polygon fill="#C4BCA2" points="132.889,157.471 132.639,141.453 133.139,141.453 				"/>
			</g>
			<g>
				<polygon fill="#C4BCA2" points="130.18,157.835 129.93,141.453 130.43,141.453 				"/>
			</g>
			<g>
				<polygon fill="#C4BCA2" points="127.471,158.132 127.221,141.453 127.721,141.453 				"/>
			</g>
			<g>
				<polygon fill="#C4BCA2" points="124.73,158.43 124.48,141.453 124.98,141.453 				"/>
			</g>
			<g>
				<polygon fill="#C4BCA2" points="122.021,158.693 121.771,141.453 122.271,141.453 				"/>
			</g>
			<g>
				<polygon fill="#C4BCA2" points="119.312,158.925 119.062,141.453 119.562,141.453 				"/>
			</g>
			<g>
				<polygon fill="#C4BCA2" points="116.573,159.156 116.323,141.453 116.823,141.453 				"/>
			</g>
			<g>
				<polygon fill="#C4BCA2" points="113.865,159.354 113.615,141.453 114.115,141.453 				"/>
			</g>
			<g>
				<polygon fill="#C4BCA2" points="111.154,159.52 110.904,141.453 111.404,141.453 				"/>
			</g>
			<g>
				<polygon fill="#C4BCA2" points="108.413,159.65 108.163,141.453 108.663,141.453 				"/>
			</g>
			<g>
				<polygon fill="#C4BCA2" points="105.707,159.751 105.457,141.453 105.957,141.453 				"/>
			</g>
			<g>
				<polygon fill="#C4BCA2" points="102.965,159.883 102.715,141.453 103.215,141.453 				"/>
			</g>
			<g>
				<polygon fill="#C4BCA2" points="100.258,159.949 100.008,141.453 100.508,141.453 				"/>
			</g>
			<g>
				<polygon fill="#C4BCA2" points="97.549,160.016 97.299,141.453 97.799,141.453 				"/>
			</g>
			<g>
				<polygon fill="#C4BCA2" points="94.807,160.016 94.557,141.453 95.057,141.453 				"/>
			</g>
			<g>
				<polygon fill="#C4BCA2" points="92.098,160.049 91.848,141.453 92.348,141.453 				"/>
			</g>
			<g>
				<polygon fill="#C4BCA2" points="89.392,160.016 89.142,141.453 89.642,141.453 				"/>
			</g>
			<g>
				<polygon fill="#C4BCA2" points="86.649,160.016 86.399,141.453 86.899,141.453 				"/>
			</g>
			<g>
				<polygon fill="#C4BCA2" points="83.943,159.949 83.693,141.453 84.193,141.453 				"/>
			</g>
			<g>
				<polygon fill="#C4BCA2" points="81.201,159.883 80.951,141.453 81.451,141.453 				"/>
			</g>
			<g>
				<polygon fill="#C4BCA2" points="78.492,159.751 78.242,141.453 78.742,141.453 				"/>
			</g>
			<g>
				<polygon fill="#C4BCA2" points="75.782,159.65 75.532,141.453 76.032,141.453 				"/>
			</g>
			<g>
				<polygon fill="#C4BCA2" points="73.043,159.52 72.793,141.453 73.293,141.453 				"/>
			</g>
			<g>
				<polygon fill="#C4BCA2" points="70.334,159.354 70.084,141.453 70.584,141.453 				"/>
			</g>
			<g>
				<polygon fill="#C4BCA2" points="67.627,159.156 67.377,141.453 67.877,141.453 				"/>
			</g>
			<g>
				<polygon fill="#C4BCA2" points="64.885,158.925 64.635,141.453 65.135,141.453 				"/>
			</g>
			<g>
				<polygon fill="#C4BCA2" points="62.176,158.693 61.926,141.453 62.426,141.453 				"/>
			</g>
			<g>
				<polygon fill="#C4BCA2" points="59.434,158.43 59.184,141.453 59.684,141.453 				"/>
			</g>
			<g>
				<polygon fill="#C4BCA2" points="56.728,158.132 56.478,141.453 56.978,141.453 				"/>
			</g>
			<g>
				<polygon fill="#C4BCA2" points="54.019,157.835 53.769,141.453 54.269,141.453 				"/>
			</g>
			<g>
				<polygon fill="#C4BCA2" points="51.276,157.471 51.026,141.453 51.526,141.453 				"/>
			</g>
			<g>
				<polygon fill="#C4BCA2" points="48.57,157.107 48.32,141.453 48.82,141.453 				"/>
			</g>
			<g>
				<polygon fill="#C4BCA2" points="45.861,156.711 45.611,141.453 46.111,141.453 				"/>
			</g>
			<g>
				<polygon fill="#C4BCA2" points="43.119,156.282 42.869,141.453 43.369,141.453 				"/>
			</g>
			<g>
				<polygon fill="#C4BCA2" points="40.412,155.818 40.162,141.453 40.662,141.453 				"/>
			</g>
			<g>
				<polygon fill="#C4BCA2" points="37.703,155.324 37.453,141.453 37.953,141.453 				"/>
			</g>
			<g>
				<polygon fill="#C4BCA2" points="34.961,154.794 34.711,141.453 35.211,141.453 				"/>
			</g>
			<g>
				<polygon fill="#C4BCA2" points="32.254,154.232 32.004,141.453 32.504,141.453 				"/>
			</g>
			<g>
				<polygon fill="#C4BCA2" points="29.512,153.639 29.262,141.453 29.762,141.453 				"/>
			</g>
			<g>
				<polygon fill="#C4BCA2" points="26.803,152.979 26.553,141.453 27.053,141.453 				"/>
			</g>
			<g>
				<polygon fill="#C4BCA2" points="24.094,152.316 23.844,141.453 24.344,141.453 				"/>
			</g>
			<g>
				<polygon fill="#C4BCA2" points="21.355,151.593 21.105,141.453 21.605,141.453 				"/>
			</g>
			<g>
				<polygon fill="#C4BCA2" points="18.646,150.833 18.396,141.453 18.896,141.453 				"/>
			</g>
			<g>
				<polygon fill="#C4BCA2" points="15.939,150.007 15.689,141.453 16.189,141.453 				"/>
			</g>
			<g>
				<path fill="none" d="M54.019,157.835"/>
			</g>
			<g>
				<path fill="none" d="M51.276,157.471"/>
			</g>
			<g>
				<path fill="none" d="M51.276,157.471"/>
			</g>
			<g>
				<path fill="none" d="M48.57,157.107"/>
			</g>
			<g>
				<path fill="none" d="M21.355,151.593"/>
			</g>
			<g>
				<path fill="none" d="M18.646,150.833"/>
			</g>
			<g>
				<path fill="none" d="M29.512,153.639"/>
			</g>
			<g>
				<path fill="none" d="M26.803,152.979"/>
			</g>
			<g>
				<path fill="none" d="M32.254,154.232"/>
			</g>
			<g>
				<path fill="none" d="M29.512,153.639"/>
			</g>
			<g>
				<path fill="none" d="M37.703,155.324"/>
			</g>
			<g>
				<path fill="none" d="M34.961,154.794"/>
			</g>
			<g>
				<path fill="none" d="M26.803,152.979"/>
			</g>
			<g>
				<path fill="none" d="M24.094,152.316"/>
			</g>
			<g>
				<path fill="none" d="M40.412,155.818"/>
			</g>
			<g>
				<path fill="none" d="M37.703,155.324"/>
			</g>
			<g>
				<path fill="none" d="M48.57,157.107"/>
			</g>
			<g>
				<path fill="none" d="M45.861,156.711"/>
			</g>
			<g>
				<path fill="none" d="M45.861,156.711"/>
			</g>
			<g>
				<path fill="none" d="M43.119,156.282"/>
			</g>
			<g>
				<path fill="none" d="M34.961,154.794"/>
			</g>
			<g>
				<path fill="none" d="M32.254,154.232"/>
			</g>
			<g>
				<path fill="none" d="M24.094,152.316"/>
			</g>
			<g>
				<path fill="none" d="M21.355,151.593"/>
			</g>
			<g>
				<path fill="none" d="M43.119,156.282"/>
			</g>
			<g>
				<path fill="none" d="M40.412,155.818"/>
			</g>
			<g>
				<path fill="none" d="M18.646,150.833"/>
			</g>
			<g>
				<path fill="none" d="M15.939,150.007"/>
			</g>
			<g>
				<path fill="none" d="M122.021,158.693"/>
			</g>
			<g>
				<path fill="none" d="M119.312,158.925"/>
			</g>
			<g>
				<path fill="none" d="M130.18,157.835"/>
			</g>
			<g>
				<path fill="none" d="M127.471,158.132"/>
			</g>
			<g>
				<path fill="none" d="M132.889,157.471"/>
			</g>
			<g>
				<path fill="none" d="M130.18,157.835"/>
			</g>
			<g>
				<path fill="none" d="M135.628,157.107"/>
			</g>
			<g>
				<path fill="none" d="M132.889,157.471"/>
			</g>
			<g>
				<path fill="none" d="M141.079,156.282"/>
			</g>
			<g>
				<path fill="none" d="M138.337,156.711"/>
			</g>
			<g>
				<path fill="none" d="M138.337,156.711"/>
			</g>
			<g>
				<path fill="none" d="M135.628,157.107"/>
			</g>
			<g>
				<path fill="none" d="M127.471,158.132"/>
			</g>
			<g>
				<path fill="none" d="M124.73,158.43"/>
			</g>
			<g>
				<path fill="none" d="M143.786,155.818"/>
			</g>
			<g>
				<path fill="none" d="M141.079,156.282"/>
			</g>
			<g>
				<path fill="none" d="M119.312,158.925"/>
			</g>
			<g>
				<path fill="none" d="M116.573,159.156"/>
			</g>
			<g>
				<path fill="none" d="M116.573,159.156"/>
			</g>
			<g>
				<path fill="none" d="M113.865,159.354"/>
			</g>
			<g>
				<path fill="none" d="M124.73,158.43"/>
			</g>
			<g>
				<path fill="none" d="M122.021,158.693"/>
			</g>
			<g>
				<path fill="none" d="M160.102,152.316"/>
			</g>
			<g>
				<path fill="none" d="M157.395,152.979"/>
			</g>
			<g>
				<path fill="none" d="M165.552,150.833"/>
			</g>
			<g>
				<path fill="none" d="M162.843,151.593"/>
			</g>
			<g>
				<path fill="none" d="M162.843,151.593"/>
			</g>
			<g>
				<path fill="none" d="M160.102,152.316"/>
			</g>
			<g>
				<path fill="none" d="M113.865,159.354"/>
			</g>
			<g>
				<path fill="none" d="M111.154,159.52"/>
			</g>
			<g>
				<path fill="none" d="M168.262,150.007"/>
			</g>
			<g>
				<path fill="none" d="M165.552,150.833"/>
			</g>
			<g>
				<path fill="none" d="M157.395,152.979"/>
			</g>
			<g>
				<path fill="none" d="M154.652,153.639"/>
			</g>
			<g>
				<path fill="none" d="M151.947,154.232"/>
			</g>
			<g>
				<path fill="none" d="M149.236,154.794"/>
			</g>
			<g>
				<path fill="none" d="M149.236,154.794"/>
			</g>
			<g>
				<path fill="none" d="M146.495,155.324"/>
			</g>
			<g>
				<path fill="none" d="M56.728,158.132"/>
			</g>
			<g>
				<path fill="none" d="M54.019,157.835"/>
			</g>
			<g>
				<path fill="none" d="M154.652,153.639"/>
			</g>
			<g>
				<path fill="none" d="M151.947,154.232"/>
			</g>
			<g>
				<path fill="none" d="M146.495,155.324"/>
			</g>
			<g>
				<path fill="none" d="M143.786,155.818"/>
			</g>
			<g>
				<path fill="none" d="M73.043,159.52"/>
			</g>
			<g>
				<path fill="none" d="M70.334,159.354"/>
			</g>
			<g>
				<path fill="none" d="M70.334,159.354"/>
			</g>
			<g>
				<path fill="none" d="M67.627,159.156"/>
			</g>
			<g>
				<path fill="none" d="M75.782,159.65"/>
			</g>
			<g>
				<path fill="none" d="M73.043,159.52"/>
			</g>
			<g>
				<path fill="none" d="M78.492,159.751"/>
			</g>
			<g>
				<path fill="none" d="M75.782,159.65"/>
			</g>
			<g>
				<path fill="none" d="M81.201,159.883"/>
			</g>
			<g>
				<path fill="none" d="M78.492,159.751"/>
			</g>
			<g>
				<path fill="none" d="M64.885,158.925"/>
			</g>
			<g>
				<path fill="none" d="M62.176,158.693"/>
			</g>
			<g>
				<path fill="none" d="M59.434,158.43"/>
			</g>
			<g>
				<path fill="none" d="M56.728,158.132"/>
			</g>
			<g>
				<path fill="none" d="M67.627,159.156"/>
			</g>
			<g>
				<path fill="none" d="M64.885,158.925"/>
			</g>
			<g>
				<path fill="none" d="M62.176,158.693"/>
			</g>
			<g>
				<path fill="none" d="M59.434,158.43"/>
			</g>
			<g>
				<path fill="none" d="M83.943,159.949"/>
			</g>
			<g>
				<path fill="none" d="M81.201,159.883"/>
			</g>
			<g>
				<path fill="none" d="M108.413,159.65"/>
			</g>
			<g>
				<path fill="none" d="M105.707,159.751"/>
			</g>
			<g>
				<path fill="none" d="M102.965,159.883"/>
			</g>
			<g>
				<path fill="none" d="M100.258,159.949"/>
			</g>
			<g>
				<path fill="none" d="M86.649,160.016"/>
			</g>
			<g>
				<path fill="none" d="M83.943,159.949"/>
			</g>
			<g>
				<path fill="none" d="M111.154,159.52"/>
			</g>
			<g>
				<path fill="none" d="M108.413,159.65"/>
			</g>
			<g>
				<path fill="none" d="M100.258,159.949"/>
			</g>
			<g>
				<path fill="none" d="M97.549,160.016"/>
			</g>
			<g>
				<path fill="none" d="M105.707,159.751"/>
			</g>
			<g>
				<path fill="none" d="M102.965,159.883"/>
			</g>
			<g>
				<path fill="none" d="M92.098,160.049"/>
			</g>
			<g>
				<path fill="none" d="M89.392,160.016"/>
			</g>
			<g>
				<path fill="none" d="M97.549,160.016"/>
			</g>
			<g>
				<path fill="none" d="M94.807,160.016"/>
			</g>
			<g>
				<path fill="none" d="M89.392,160.016"/>
			</g>
			<g>
				<path fill="none" d="M86.649,160.016"/>
			</g>
			<g>
				<path fill="none" d="M94.807,160.016"/>
			</g>
			<g>
				<path fill="none" d="M92.098,160.049"/>
			</g>
		</g>
		<g>
			<path fill="#9B8579" d="M169.188,139.604v-0.924H13.131v13.014c0,0,0.33,0.1,0.925,0.293v-12.383H169.188z"/>
		</g>
		<g>
			<g>
				<path fill="#97131F" d="M21.718,88.41h5.416c2.577,0,4.493,0.66,5.682,1.949c1.189,1.354,1.748,3.437,1.748,6.341
					c0,4.03-1.186,6.67-3.565,7.827c-1.189,0.562-2.907,0.826-5.187,0.826v13.506h-4.094V88.41z M25.812,101.852
					c1.685,0,2.875-0.363,3.502-1.021c0.661-0.727,0.991-1.949,0.991-3.732c0-1.818-0.297-3.137-0.925-3.996
					c-0.628-0.826-1.652-1.256-3.006-1.256h-0.562V101.852z"/>
				<path fill="#97131F" d="M41.136,88.41h3.205l6.542,30.449h-4.064l-1.156-5.943H39.62l-1.156,5.943h-3.932L41.136,88.41z
					 M45.068,109.747l-0.892-4.856c-0.595-3.304-1.09-6.836-1.487-10.566c-0.198,1.814-0.43,3.665-0.694,5.547
					c-0.297,1.88-0.661,3.863-1.058,5.979l-0.724,3.897H45.068z"/>
				<path fill="#97131F" d="M53.292,88.41h5.416c2.61,0,4.493,0.66,5.683,1.949c1.189,1.354,1.784,3.437,1.784,6.341
					c0,4.03-1.189,6.67-3.601,7.827c-1.189,0.562-2.907,0.826-5.185,0.826v13.506h-4.097V88.41z M57.388,101.852
					c1.715,0,2.872-0.363,3.532-1.021c0.661-0.727,0.992-1.949,0.992-3.732c0-1.818-0.331-3.137-0.958-3.996
					c-0.628-0.826-1.619-1.256-2.974-1.256h-0.592V101.852z"/>
				<path fill="#97131F" d="M69.31,88.41h10.933v3.469H73.44v9.643h6.01v3.47h-6.01v10.403h6.803v3.465H69.31V88.41z"/>
				<path fill="#97131F" d="M84.009,88.41h5.416c2.211,0,3.896,0.529,4.986,1.586c1.388,1.388,2.082,3.502,2.082,6.341
					c0,2.181-0.396,3.933-1.124,5.25c-0.727,1.321-1.75,2.147-3.105,2.478l5.583,14.795h-4.164l-5.581-14.895v14.895h-4.094V88.41z
					 M88.103,101.884c1.586,0,2.709-0.364,3.367-1.087c0.66-0.729,0.991-1.982,0.991-3.734c0-0.957-0.066-1.75-0.198-2.44
					c-0.133-0.661-0.364-1.188-0.661-1.619c-0.298-0.429-0.659-0.728-1.121-0.925c-0.496-0.199-1.023-0.297-1.685-0.297h-0.693
					V101.884z"/>
				<path fill="#97131F" d="M101.051,88.41h5.549c4.357,0,6.539,2.709,6.539,8.092c0,2.082-0.298,3.602-0.859,4.625
					c-0.562,0.989-1.553,1.748-3.006,2.244c1.651,0.661,2.773,1.521,3.401,2.544c0.595,0.991,0.925,2.543,0.925,4.56
					c0,5.613-2.412,8.385-7.199,8.385h-5.351L101.051,88.41L101.051,88.41z M104.88,101.818c1.62,0,2.709-0.363,3.334-1.088
					c0.628-0.793,0.927-2.146,0.927-4.097c0-3.301-1.188-4.952-3.565-4.952h-0.298h-0.197c-0.1,0-0.166,0.032-0.199,0.032
					L104.88,101.818L104.88,101.818z M104.88,115.361c1.685,0,2.875-0.363,3.5-1.09c0.66-0.728,0.991-2.017,0.991-3.93
					c0-1.949-0.331-3.304-1.023-4.097c-0.658-0.761-1.814-1.157-3.467-1.157L104.88,115.361L104.88,115.361z"/>
				<path fill="#97131F" d="M122.121,88.41h3.202l6.542,30.449h-4.063l-1.157-5.943h-6.043l-1.156,5.943h-3.93L122.121,88.41z
					 M126.05,109.747l-0.891-4.856c-0.593-3.304-1.089-6.836-1.485-10.566c-0.197,1.814-0.43,3.665-0.693,5.547
					c-0.297,1.88-0.66,3.863-1.058,5.979l-0.726,3.897H126.05z"/>
				<path fill="#97131F" d="M145.967,88.906v3.667c-1.058-0.496-1.949-0.761-2.644-0.761c-0.99,0-1.814,0.231-2.507,0.729
					c-0.693,0.462-1.289,1.223-1.752,2.213c-0.43,0.988-0.76,2.277-0.99,3.796c-0.231,1.554-0.331,3.334-0.331,5.449
					c0,7.532,1.948,11.296,5.778,11.296c0.694,0,1.487-0.23,2.445-0.661v3.798c-0.992,0.528-2.115,0.825-3.337,0.825
					c-6.175,0-9.245-5.052-9.245-15.126c0-5.447,0.76-9.509,2.244-12.152c1.52-2.676,3.833-3.998,6.936-3.998
					C143.721,87.981,144.843,88.278,145.967,88.906z"/>
				<path fill="#97131F" d="M149.402,88.41h4.127v14.763l5.713-14.763h4.129l-5.977,14.763l6.472,15.688h-4.625l-5.714-15.688
					v15.688H149.4V88.41H149.402z"/>
			</g>
			<g>
				<path fill="#DED3B5" d="M20.892,87.584h5.416c2.577,0,4.493,0.661,5.682,1.95c1.156,1.354,1.751,3.436,1.751,6.341
					c0,4.03-1.189,6.671-3.568,7.827c-1.189,0.562-2.907,0.825-5.188,0.825v13.511h-4.094L20.892,87.584L20.892,87.584z
					 M24.986,101.027c1.686,0,2.875-0.363,3.502-1.023c0.661-0.727,0.991-1.949,0.991-3.732c0-1.814-0.297-3.137-0.925-3.996
					c-0.627-0.825-1.652-1.254-3.006-1.254h-0.562V101.027z"/>
				<path fill="#DED3B5" d="M40.313,87.584h3.202l6.542,30.453h-4.063l-1.157-5.947h-6.043l-1.156,5.947h-3.929L40.313,87.584z
					 M44.242,108.922l-0.892-4.857c-0.595-3.301-1.09-6.836-1.487-10.566c-0.198,1.814-0.429,3.665-0.694,5.547
					c-0.297,1.885-0.658,3.863-1.054,5.979l-0.727,3.898H44.242z"/>
				<path fill="#DED3B5" d="M52.466,87.584h5.416c2.61,0,4.493,0.661,5.683,1.95c1.189,1.354,1.784,3.436,1.784,6.341
					c0,4.03-1.19,6.671-3.602,7.827c-1.189,0.562-2.907,0.825-5.184,0.825v13.511h-4.097V87.584z M56.562,101.027
					c1.715,0,2.872-0.363,3.532-1.023c0.661-0.727,0.958-1.949,0.958-3.732c0-1.814-0.297-3.137-0.925-3.996
					c-0.628-0.825-1.619-1.254-2.971-1.254h-0.595L56.562,101.027L56.562,101.027z"/>
				<path fill="#DED3B5" d="M68.483,87.584h10.933v3.469h-6.803v9.646h6.01v3.467h-6.01v10.403h6.803v3.469H68.483V87.584z"/>
				<path fill="#DED3B5" d="M83.183,87.584h5.416c2.213,0,3.896,0.529,4.986,1.586c1.388,1.387,2.082,3.502,2.082,6.34
					c0,2.182-0.396,3.932-1.124,5.254c-0.727,1.317-1.75,2.145-3.105,2.475l5.583,14.798h-4.164l-5.58-14.897v14.897h-4.094
					L83.183,87.584L83.183,87.584z M87.277,101.061c1.585,0,2.708-0.362,3.369-1.09c0.658-0.728,0.989-1.981,0.989-3.734
					c0-0.957-0.066-1.747-0.198-2.441c-0.132-0.661-0.361-1.189-0.658-1.619c-0.298-0.429-0.661-0.726-1.124-0.924
					c-0.495-0.199-1.023-0.297-1.685-0.297h-0.693V101.061z"/>
				<path fill="#DED3B5" d="M100.225,87.584h5.549c4.357,0,6.539,2.676,6.539,8.092c0,2.081-0.297,3.602-0.859,4.592
					c-0.562,1.021-1.553,1.781-3.006,2.277c1.652,0.66,2.775,1.52,3.402,2.543c0.596,0.992,0.926,2.544,0.926,4.559
					c0,5.614-2.412,8.39-7.2,8.39h-5.351V87.584z M104.055,100.995c1.619,0,2.709-0.364,3.336-1.09
					c0.629-0.794,0.922-2.147,0.922-4.097c0-3.302-1.187-4.953-3.564-4.953h-0.297h-0.198c-0.101,0-0.166,0.033-0.198,0.033V100.995
					z M104.055,114.536c1.684,0,2.875-0.364,3.502-1.091c0.657-0.728,0.988-2.012,0.988-3.93c0-1.949-0.331-3.304-1.021-4.097
					c-0.66-0.759-1.816-1.157-3.469-1.157V114.536z"/>
				<path fill="#DED3B5" d="M121.296,87.584h3.204l6.539,30.453h-4.062l-1.158-5.947h-6.043l-1.156,5.947h-3.928L121.296,87.584z
					 M125.225,108.922l-0.891-4.857c-0.594-3.301-1.09-6.836-1.486-10.566c-0.197,1.814-0.43,3.665-0.727,5.547
					c-0.264,1.885-0.627,3.863-1.023,5.979l-0.728,3.898H125.225z"/>
				<path fill="#DED3B5" d="M145.141,88.08v3.667c-1.058-0.495-1.949-0.761-2.643-0.761c-0.989,0-1.814,0.231-2.508,0.728
					c-0.693,0.462-1.289,1.222-1.752,2.213c-0.43,0.988-0.758,2.277-0.99,3.796c-0.23,1.521-0.331,3.338-0.331,5.449
					c0,7.533,1.917,11.297,5.78,11.297c0.693,0,1.486-0.23,2.443-0.66v3.799c-0.992,0.525-2.115,0.822-3.334,0.822
					c-6.179,0-9.248-5.052-9.248-15.126c0-5.448,0.76-9.509,2.246-12.151c1.518-2.676,3.83-3.999,6.936-3.999
					C142.895,87.155,144.018,87.452,145.141,88.08z"/>
				<path fill="#DED3B5" d="M148.576,87.584h4.127v14.764l5.715-14.764h4.127l-5.979,14.764l6.473,15.689h-4.622l-5.715-15.689
					v15.689h-4.127L148.576,87.584L148.576,87.584z"/>
			</g>
		</g>
		<g>
			<g>
				<path fill="#DED3B5" d="M67.693,122.891l1.418,0.101l-0.859,12.118l-1.451-0.1L67.693,122.891z"/>
				<path fill="#DED3B5" d="M82.655,123.684l-0.562,12.682c-1.42-1.649-2.809-3.268-4.229-4.887
					c-1.388-1.651-2.808-3.269-4.226-4.92c-0.066-0.066-0.099-0.166-0.165-0.23c-0.033-0.067-0.099-0.133-0.132-0.232
					c0,0.1,0,0.199,0,0.297c0,0.067,0,0.168,0,0.266l-0.363,8.75l-1.421-0.033l0.529-12.682c1.421,1.686,2.838,3.336,4.226,4.99
					c1.388,1.648,2.809,3.301,4.229,4.984c0.066,0.1,0.099,0.165,0.165,0.232c0.033,0.065,0.099,0.164,0.166,0.23
					c-0.034-0.099-0.034-0.165-0.034-0.265c0-0.099,0-0.198,0-0.298l0.364-8.95L82.655,123.684z"/>
				<path fill="#DED3B5" d="M84.898,123.717l2.808,0.033c0.859,0,1.619,0.133,2.378,0.43c0.727,0.266,1.385,0.693,1.914,1.223
					c0.562,0.529,0.99,1.189,1.322,1.916c0.33,0.761,0.462,1.584,0.462,2.541c0,0.662-0.132,1.389-0.363,2.082
					c-0.231,0.727-0.627,1.388-1.156,1.949c-0.529,0.594-1.22,1.058-2.079,1.418c-0.859,0.396-1.883,0.562-3.105,0.562h-2.244
					L84.898,123.717z M86.319,125.104l-0.033,9.381h1.189c0.694,0,1.321-0.1,1.917-0.332c0.594-0.197,1.123-0.527,1.552-0.924
					c0.427-0.396,0.758-0.892,1.022-1.453c0.264-0.596,0.396-1.223,0.396-1.949s-0.132-1.352-0.364-1.947
					c-0.264-0.562-0.594-1.057-1.021-1.486c-0.429-0.396-0.958-0.728-1.519-0.959c-0.595-0.197-1.223-0.33-1.917-0.33H86.319z"/>
				<path fill="#DED3B5" d="M96.293,135.87l-0.297-12.12l7.463-0.198l0.034,1.354l-6.043,0.164l0.132,3.963l5.35-0.133l0.033,1.389
					l-5.35,0.132l0.099,4.063l6.274-0.164l0.033,1.352L96.293,135.87z"/>
				<path fill="#DED3B5" d="M110.691,129.132c-0.692-0.955-1.42-1.914-2.113-2.838c-0.691-0.959-1.385-1.916-2.111-2.875
					l1.781-0.099c0.496,0.693,1.023,1.387,1.52,2.082c0.528,0.693,1.024,1.388,1.553,2.113c0.033,0.067,0.1,0.133,0.132,0.199
					c0.032,0.1,0.099,0.165,0.132,0.23c0.033-0.065,0.066-0.164,0.1-0.23s0.066-0.166,0.1-0.23c0.43-0.76,0.859-1.521,1.289-2.28
					c0.396-0.728,0.826-1.486,1.255-2.247l1.784-0.1c-0.596,1.058-1.189,2.115-1.784,3.14s-1.188,2.082-1.784,3.135
					c0.727,0.991,1.42,1.949,2.148,2.907c0.727,0.992,1.453,1.95,2.18,2.938l-1.784,0.1l-3.172-4.292
					c-0.065-0.066-0.099-0.165-0.132-0.231c-0.066-0.066-0.1-0.166-0.165-0.23c0,0.066-0.033,0.164-0.099,0.23
					c-0.033,0.1-0.066,0.165-0.066,0.264c-0.462,0.761-0.893,1.554-1.322,2.313c-0.429,0.759-0.892,1.552-1.32,2.31l-1.781,0.133
					c0.627-1.088,1.22-2.146,1.847-3.234C109.471,131.28,110.064,130.223,110.691,129.132z"/>
			</g>
			<polygon fill="#DED3B5" points="61.945,131.28 61.582,130.189 60.425,130.189 61.351,129.496 60.987,128.409 61.945,129.1 
				62.87,128.409 62.506,129.496 63.432,130.189 62.275,130.189 			"/>
			<polygon fill="#DED3B5" points="120.667,131.28 120.337,130.189 119.18,130.189 120.105,129.496 119.742,128.409 120.667,129.1 
				121.625,128.409 121.262,129.496 122.188,130.189 121.031,130.189 			"/>
		</g>
		<g>
			<g>
				<path fill="#DED3B5" d="M62.54,68.56l1.454-0.132c-0.694,2.214-1.388,4.396-2.082,6.575c-0.661,2.18-1.354,4.391-2.048,6.572
					c-1.09-2.016-2.181-4.028-3.268-6.043c-1.124-2.015-2.214-4.03-3.304-6.046l1.421-0.165c0.793,1.453,1.553,2.874,2.312,4.261
					c0.757,1.421,1.55,2.841,2.31,4.262l0.231,0.56l0.099-0.592c0.496-1.553,0.958-3.072,1.453-4.625
					C61.582,71.666,62.077,70.113,62.54,68.56z"/>
				<path fill="#DED3B5" d="M66.801,68.263l1.418-0.099l0.859,12.122l-1.451,0.099L66.801,68.263z"/>
				<path fill="#DED3B5" d="M82.456,67.47l0.528,12.683c-1.552-1.52-3.105-3.037-4.625-4.523c-1.553-1.52-3.072-3.006-4.623-4.56
					c-0.066-0.066-0.132-0.132-0.198-0.198c-0.033-0.066-0.099-0.132-0.165-0.231c0.033,0.099,0.033,0.198,0.033,0.297
					c0.033,0.066,0.033,0.166,0.033,0.265l0.364,8.752l-1.454,0.066L71.854,67.34c1.553,1.55,3.103,3.103,4.623,4.623
					c1.553,1.553,3.073,3.073,4.625,4.658c0.066,0.066,0.132,0.132,0.199,0.198c0.032,0.066,0.098,0.132,0.165,0.231
					c-0.033-0.099-0.033-0.198-0.033-0.297c-0.034-0.065-0.034-0.165-0.034-0.264l-0.363-8.953L82.456,67.47z"/>
				<path fill="#DED3B5" d="M94.146,67.407v1.351l-4.062,0.034l0.066,10.767h-1.42l-0.066-10.767l-4.094,0.033v-1.388L94.146,67.407
					z"/>
				<path fill="#DED3B5" d="M105.904,79.823l-1.42-0.033c-0.332-0.826-0.629-1.619-0.959-2.442c-0.33-0.826-0.627-1.619-0.957-2.445
					l-3.797-0.098c-0.362,0.792-0.727,1.585-1.09,2.378s-0.727,1.583-1.09,2.376l-1.42-0.033c0.958-2.112,1.917-4.193,2.842-6.275
					c0.957-2.081,1.916-4.163,2.873-6.274c0.826,2.145,1.682,4.292,2.508,6.407C104.221,75.531,105.079,77.679,105.904,79.823z
					 M100.952,70.741l-0.166-0.562c-0.165,0.562-0.396,1.124-0.627,1.652c-0.265,0.528-0.528,1.09-0.761,1.619l2.607,0.099
					c-0.165-0.495-0.361-0.958-0.525-1.42C101.314,71.666,101.117,71.203,100.952,70.741z"/>
				<path fill="#DED3B5" d="M114.262,76.489l0.065-1.387l2.411,0.165c0.33,0.033,0.529,0.132,0.628,0.298
					c0.099,0.165,0.165,0.429,0.133,0.792l-0.231,3.433c-0.463,0.231-0.99,0.396-1.52,0.529c-0.529,0.132-1.091,0.165-1.686,0.132
					c-0.859-0.066-1.652-0.265-2.379-0.661c-0.728-0.363-1.354-0.826-1.883-1.42c-0.496-0.592-0.925-1.286-1.189-2.079
					c-0.264-0.76-0.362-1.552-0.33-2.412c0.066-0.859,0.264-1.652,0.66-2.378c0.363-0.76,0.826-1.388,1.453-1.917
					c0.596-0.496,1.256-0.925,2.049-1.189c0.761-0.297,1.586-0.396,2.412-0.331c0.595,0.033,1.156,0.132,1.686,0.331
					c0.495,0.166,0.99,0.43,1.453,0.727c-0.165,0.199-0.297,0.363-0.462,0.562c-0.132,0.165-0.298,0.363-0.429,0.562
					c-0.332-0.231-0.694-0.429-1.092-0.562c-0.396-0.165-0.793-0.231-1.223-0.265c-0.66-0.032-1.288,0.034-1.883,0.265
					c-0.596,0.231-1.124,0.529-1.553,0.958c-0.463,0.396-0.859,0.892-1.123,1.486c-0.299,0.562-0.463,1.189-0.496,1.851
					c-0.066,0.627,0.033,1.288,0.23,1.883c0.23,0.595,0.528,1.124,0.926,1.586c0.428,0.462,0.892,0.855,1.453,1.121
					c0.562,0.297,1.156,0.462,1.817,0.495c0.595,0.066,1.188,0,1.718-0.198l0.133-1.749c0-0.198,0-0.33-0.033-0.429
					c-0.033-0.066-0.166-0.099-0.33-0.132L114.262,76.489z"/>
				<path fill="#DED3B5" d="M119.908,80.748l1.222-12.089l7.431,0.759l-0.131,1.355l-6.012-0.595l-0.396,3.932l5.317,0.562
					l-0.132,1.354l-5.316-0.528l-0.431,4.028l6.242,0.627l-0.132,1.354L119.908,80.748z"/>
			</g>
			<path fill="none" stroke="#DED3B5" stroke-width="0.75" stroke-linecap="round" stroke-miterlimit="10" d="M138.172,75.564
				c7.562,0.693,14.398,1.618,20.543,2.64"/>
			<path fill="none" stroke="#DED3B5" stroke-width="0.75" stroke-linecap="round" stroke-miterlimit="10" d="M23.929,78.204
				c6.112-1.021,12.948-1.946,20.511-2.64"/>
			<path fill="none" stroke="#DED3B5" stroke-width="0.75" stroke-linecap="round" stroke-miterlimit="10" d="M44.44,79.261
				c-8.125,0.76-15.423,1.784-21.863,2.908"/>
			<path fill="none" stroke="#DED3B5" stroke-width="0.75" stroke-linecap="round" stroke-miterlimit="10" d="M160.035,82.169
				c-6.439-1.156-13.738-2.147-21.863-2.908"/>
			<polygon fill="#DED3B5" points="49,78.964 48.405,77.15 46.522,77.15 48.042,76.06 47.446,74.243 49,75.366 50.52,74.243 
				49.925,76.06 51.475,77.15 49.561,77.15 			"/>
			<polygon fill="#DED3B5" points="133.648,78.964 133.055,77.15 131.139,77.15 132.691,76.06 132.096,74.243 133.648,75.366 
				135.168,74.243 134.574,76.06 136.124,77.15 134.21,77.15 			"/>
		</g>
		<g>
			<polygon fill="#BE1E2D" points="91.175,29.754 113.468,24.173 113.468,53.435 91.175,59.017 68.88,53.435 68.88,24.173 			"/>
			<polygon fill="#DED3B5" points="91.175,51.353 91.569,59.711 90.746,59.711 			"/>
			<g>
				<polygon fill="#BE1E2D" points="91.175,29.754 112.773,23.479 112.773,22.092 				"/>
				<polygon fill="#BE1E2D" points="109.966,22.092 109.966,20.704 91.175,29.754 				"/>
				<polygon fill="#BE1E2D" points="91.175,29.754 69.574,23.479 69.574,22.092 				"/>
				<polygon fill="#BE1E2D" points="72.349,22.092 72.349,20.704 91.175,29.754 				"/>
			</g>
			<polygon fill="#DED3B5" points="91.175,37.416 90.746,29.06 91.569,29.06 			"/>
		</g>
		<g>
			<path fill="#DED3B5" d="M102.236,34.013c0,0-8.289,4.559-8.289,11.065s8.885,4.592,8.885,4.592l0.991-5.253l-0.728-0.229
				l-2.771,4.524l-0.926,0.066l1.455-3.865l-1.189-0.264l-3.436,0.991c0,0-0.463-3.434-0.596-4.226l4.924,1.124l0.43-0.297
				l-3.7-3.337l0.628-1.057l4.357,2.279v1.652l0.694-0.792L102.236,34.013z"/>
			<path fill="#DED3B5" d="M110.361,37.251l-0.23,0.561l-4.324,2.577l-0.033,0.859l2.641-1.123l1.652-0.826l0.826,1.751
				l-3.434,1.222l2.111,1.718v0.361l-2.838,2.016l-0.926-3.103l-1.188,0.826l0.1,0.294l0.298,0.033l0.098,4.395
				c0,0,6.572-2.874,6.572-8.852c0-5.98-5.713-6.244-5.713-6.244l-0.594,3.667l-0.99,1.156l0.527,0.43l1.586-0.627l1.848-1.718
				L110.361,37.251z"/>
			<path fill="#DED3B5" d="M101.15,40.72c0.065-0.132,0.033-0.23,0-0.23c-0.066-0.033-0.166,0.066-0.198,0.198
				c-0.065,0.132-0.065,0.265,0,0.265C101.018,40.984,101.084,40.885,101.15,40.72z"/>
			<path fill="#DED3B5" d="M100.688,40.29c0.033-0.132,0.033-0.231-0.033-0.231c-0.032-0.033-0.131,0.099-0.166,0.198
				c-0.031,0.132-0.031,0.265,0.033,0.265C100.589,40.522,100.654,40.422,100.688,40.29z"/>
		</g>
	</g>
</g>
</svg>
